<?xml version="1.0" standalone="no"?>
<!DOCTYPE svg PUBLIC "-//W3C//DTD SVG 20010904//EN"
 "http://www.w3.org/TR/2001/REC-SVG-20010904/DTD/svg10.dtd">
<svg version="1.0" xmlns="http://www.w3.org/2000/svg"
 width="512.000000pt" height="512.000000pt" viewBox="0 0 512.000000 512.000000"
 preserveAspectRatio="xMidYMid meet">
<metadata>
Created by potrace 1.14, written by Peter Selinger 2001-2017
</metadata>
<g transform="translate(0.000000,512.000000) scale(0.100000,-0.100000)"
fill="#000000" stroke="none">
<path d="M2679 4998 c-34 -51 -65 -95 -68 -98 -3 -3 -26 -31 -50 -62 -45 -60
-144 -158 -220 -218 l-44 -34 6 29 c4 17 11 50 17 75 36 160 38 175 29 192
-17 32 -40 20 -129 -69 -108 -108 -189 -184 -260 -243 -30 -25 -57 -47 -60
-50 -3 -3 -36 -32 -74 -65 -80 -70 -187 -118 -225 -101 -19 8 -27 5 -54 -25
-18 -19 -52 -43 -77 -54 -50 -21 -177 -109 -287 -197 -39 -32 -81 -58 -92 -58
-13 0 -26 -12 -36 -32 -8 -18 -30 -52 -48 -75 -17 -23 -57 -75 -88 -115 -107
-139 -217 -339 -278 -508 -7 -19 -17 -44 -21 -55 -4 -11 -13 -40 -20 -65 -7
-25 -16 -56 -20 -70 -26 -84 -50 -206 -72 -355 -8 -55 -22 -252 -29 -410 0
-11 4 -56 10 -100 5 -44 14 -123 20 -175 l11 -94 -42 -41 c-22 -22 -55 -69
-72 -105 -26 -55 -31 -79 -34 -163 -3 -53 -8 -97 -12 -97 -5 0 -17 -19 -29
-42 -65 -136 -10 -407 105 -516 25 -23 50 -42 57 -42 7 0 23 -26 37 -57 31
-75 124 -168 204 -207 44 -21 80 -30 138 -34 73 -5 81 -7 112 -38 29 -29 41
-34 82 -34 51 0 93 25 107 63 11 29 96 16 97 -16 1 -22 26 -46 56 -51 16 -3
34 -12 40 -21 6 -8 16 -15 23 -15 6 0 27 -18 47 -40 34 -37 40 -40 90 -40 47
0 60 -5 106 -40 29 -22 63 -40 74 -40 12 0 27 -7 34 -15 9 -11 22 -14 39 -10
21 4 33 -2 61 -30 19 -19 43 -35 54 -35 11 0 28 -8 39 -18 12 -11 35 -17 63
-17 24 0 44 -2 44 -5 0 -14 -160 -160 -197 -180 -23 -13 -44 -30 -47 -39 -3
-9 -9 -22 -12 -28 -4 -10 67 -13 340 -13 224 0 346 4 346 10 0 6 -4 10 -9 10
-18 0 -141 123 -141 141 0 21 25 26 36 8 4 -7 24 -9 50 -6 30 3 47 0 55 -9 14
-17 51 -18 67 -2 10 10 17 10 32 0 25 -15 53 -15 67 -1 6 6 34 13 62 14 48 3
51 1 51 -21 0 -16 -17 -37 -57 -70 -32 -25 -64 -49 -70 -51 -47 -18 24 -23
327 -23 369 0 367 0 315 53 -14 14 -41 32 -60 41 -37 18 -167 155 -159 168 3
4 17 5 30 2 18 -5 34 0 54 15 16 11 39 21 50 21 12 0 35 16 53 35 25 26 39 34
65 33 18 -1 38 4 44 10 7 7 19 12 27 12 8 0 41 18 72 40 50 35 64 40 112 40
49 0 58 3 81 31 14 17 26 35 26 40 0 5 8 9 17 9 9 0 25 8 35 17 10 9 29 18 40
20 12 2 22 4 23 6 0 1 13 19 28 40 39 52 75 51 111 -3 19 -29 34 -41 54 -42
65 -4 87 3 127 42 40 40 41 40 119 40 69 0 85 4 138 32 87 46 208 188 208 244
0 8 5 14 12 14 35 0 134 117 152 180 4 14 14 50 23 80 10 33 16 95 17 155 1
88 -2 105 -24 142 -13 24 -27 43 -32 43 -4 0 -8 33 -8 73 0 119 -53 249 -126
306 l-25 20 11 103 c6 57 16 137 22 178 12 85 12 82 -1 280 -13 185 -35 359
-60 465 -5 22 -12 56 -16 75 -18 88 -102 316 -156 427 -57 116 -171 301 -222
360 -113 130 -153 170 -231 232 -49 40 -126 95 -170 123 -61 39 -86 61 -102
92 -92 180 -152 305 -157 326 -10 39 -32 64 -51 57 -9 -4 -18 -12 -20 -19 -7
-25 -39 -193 -44 -231 -4 -34 -7 -38 -26 -33 -11 3 -61 16 -110 28 l-89 21
-66 101 c-65 100 -241 436 -241 461 0 31 -39 84 -62 85 -4 0 -35 -42 -69 -92z
m-537 -1632 c76 -21 106 -31 167 -55 121 -49 137 -59 173 -113 85 -126 277
-288 342 -288 23 0 30 42 18 122 -6 40 -9 74 -8 76 2 2 27 -14 55 -36 133
-100 350 -175 412 -142 23 13 23 35 3 182 l-6 47 43 13 c68 20 278 17 372 -6
42 -10 77 -22 77 -26 0 -3 -25 -40 -55 -80 -30 -40 -55 -81 -55 -89 0 -9 41
-57 90 -106 l91 -91 -14 -45 c-8 -24 -20 -64 -27 -89 -6 -25 -16 -55 -21 -68
-5 -13 -9 -38 -9 -57 l0 -34 78 -3 c57 -2 76 -6 74 -16 -23 -113 -26 -170 -52
-907 -17 -510 -18 -521 -34 -557 -8 -18 -37 -58 -65 -88 -28 -30 -50 -58 -51
-62 0 -5 -12 -8 -28 -8 -17 0 -37 -11 -55 -30 -24 -25 -37 -30 -75 -30 -42 0
-49 -4 -64 -30 -12 -20 -25 -30 -41 -30 -14 0 -31 -9 -39 -21 -13 -20 -17 -21
-50 -9 -34 13 -39 12 -72 -13 -42 -32 -50 -33 -83 -7 -26 20 -68 27 -77 12 -4
-7 -37 -7 -188 2 -20 1 -40 5 -44 9 -4 4 -24 7 -44 7 -20 0 -40 4 -45 9 -30
28 -90 51 -135 51 -27 0 -52 4 -55 10 -9 14 -51 13 -75 -2 -15 -9 -29 -10 -62
-1 -27 7 -49 8 -60 2 -9 -5 -39 -9 -67 -9 -27 0 -51 -3 -53 -7 -8 -19 -93 -53
-133 -53 -24 0 -47 -5 -50 -10 -4 -6 -23 -7 -44 -4 -22 4 -41 2 -45 -4 -8 -13
-129 -6 -154 9 -18 11 -43 3 -93 -33 -17 -12 -22 -9 -85 37 -10 7 -20 6 -34
-3 -28 -17 -48 -15 -62 8 -7 11 -24 20 -38 20 -18 0 -31 9 -43 30 -16 26 -24
30 -61 30 -34 0 -48 6 -71 30 -18 19 -39 30 -56 30 -20 0 -39 14 -75 57 -27
31 -54 61 -59 67 -27 29 -48 186 -56 421 -28 815 -31 870 -55 1047 l-7 47 79
3 c96 4 98 8 58 125 -14 43 -30 92 -34 108 -4 17 -11 37 -14 46 -5 12 17 40
83 104 55 53 91 96 91 108 0 18 -75 127 -92 135 -5 2 -8 12 -8 22 0 12 12 21
43 28 159 41 292 43 416 7 129 -38 150 -32 131 35 -12 43 -2 45 138 28 64 -8
125 -13 135 -10 29 8 19 35 -38 96 -30 33 -55 61 -55 63 0 8 53 2 102 -11z
m-1452 -1396 c0 -5 -18 -33 -39 -62 -59 -76 -91 -146 -112 -243 -18 -77 -18
-367 0 -455 18 -93 51 -228 67 -278 16 -50 17 -52 6 -52 -5 0 -18 21 -29 48
-19 44 -31 85 -54 190 -5 23 -13 61 -19 85 -5 23 -16 76 -25 117 -8 41 -24
118 -35 170 -43 196 -19 314 80 403 72 65 160 107 160 77z m3737 -2 c38 -18
60 -35 118 -94 58 -59 76 -105 82 -214 5 -75 2 -100 -46 -322 -12 -54 -29
-139 -41 -198 -31 -155 -30 -150 -62 -217 -22 -45 -75 -113 -88 -113 -5 0 -4
15 2 33 58 187 98 422 98 575 -1 184 -43 339 -115 416 -25 27 -27 33 -16 61 6
17 11 43 11 58 0 30 14 34 57 15z m-466 -859 c-8 -32 -14 -63 -43 -209 -6 -30
-16 -73 -23 -94 l-13 -40 -7 41 c-3 23 -2 58 4 79 5 22 15 60 20 87 26 112 35
143 49 160 20 23 23 18 13 -24z m-2824 -20 c37 -73 68 -309 43 -324 -5 -3 -10
-3 -10 2 0 4 -7 40 -15 78 -20 92 -55 265 -55 272 0 13 26 -6 37 -28z m1423
-469 c0 -5 -7 -10 -15 -10 -8 0 -15 5 -15 10 0 6 7 10 15 10 8 0 15 -4 15 -10z
m77 4 c-3 -3 -12 -4 -19 -1 -8 3 -5 6 6 6 11 1 17 -2 13 -5z m122 -59 c18 -37
16 -101 -4 -131 -16 -25 -49 -32 -60 -14 -4 6 -15 8 -25 5 -12 -4 -31 3 -49
16 -40 29 -136 24 -169 -9 -13 -13 -27 -20 -32 -17 -5 3 -21 0 -35 -7 -24 -11
-29 -10 -46 12 -20 27 -26 123 -9 150 7 12 40 14 187 12 108 -2 184 1 193 8
21 14 33 8 49 -25z"/>
<path d="M1525 2195 c-100 -22 -157 -46 -203 -83 -54 -44 -43 -68 15 -31 104
68 157 82 333 87 163 4 224 -5 316 -49 84 -40 110 -37 62 8 -73 67 -359 104
-523 68z"/>
<path d="M3305 2204 c-11 -2 -50 -11 -86 -20 -81 -18 -144 -47 -153 -70 -11
-28 1 -28 58 0 90 44 154 56 306 56 178 0 279 -26 363 -92 22 -18 29 -19 40
-9 24 25 -73 85 -188 117 -58 16 -295 29 -340 18z"/>
<path d="M1827 1534 c-3 -3 -3 -12 0 -20 7 -19 267 -21 261 -1 -7 19 -243 38
-261 21z"/>
<path d="M3027 1521 c-99 -10 -70 -26 53 -29 63 -1 126 0 140 3 24 6 24 7 6
21 -20 14 -87 16 -199 5z"/>
<path d="M1617 1479 c-71 -10 -98 -15 -217 -47 -97 -26 -150 -49 -150 -65 0
-11 137 -107 152 -107 4 0 14 7 22 16 12 11 13 20 6 34 -8 15 -6 21 10 30 12
6 31 10 43 8 18 -2 23 -11 25 -43 2 -22 8 -44 13 -50 13 -13 11 -45 -3 -47 -7
0 -24 -2 -38 -3 -14 -1 -36 -8 -49 -14 -21 -12 -23 -18 -17 -54 9 -54 22 -143
36 -232 6 -44 17 -75 27 -83 30 -22 85 -32 226 -42 76 -6 142 -12 145 -14 14
-8 375 14 410 25 117 37 126 49 172 222 7 26 21 52 31 57 19 11 160 13 195 4
13 -3 24 -19 32 -47 6 -23 18 -68 27 -99 19 -66 44 -101 82 -115 96 -36 120
-38 373 -38 245 1 387 12 452 37 31 12 38 32 57 168 7 47 17 106 23 133 12 57
7 72 -26 81 -72 18 -74 21 -65 72 10 50 15 61 25 51 4 -4 1 -13 -6 -22 -10
-12 -10 -18 0 -30 7 -8 19 -15 26 -15 20 0 154 91 154 104 0 16 -40 32 -155
65 -155 45 -252 55 -476 48 -204 -7 -229 -10 -229 -33 0 -7 -18 -28 -40 -45
-22 -18 -40 -39 -40 -48 0 -12 3 -12 12 -3 7 7 21 12 31 12 10 0 32 9 48 21
16 11 33 18 37 15 10 -6 -5 -147 -16 -158 -17 -17 -416 -28 -625 -18 -115 6
-213 13 -218 16 -5 3 -9 37 -9 76 0 58 3 69 15 64 8 -3 22 -9 30 -12 31 -12
14 20 -34 66 l-49 47 -108 6 c-235 14 -302 15 -367 6z m466 -191 c9 -11 17
-29 17 -39 0 -16 -7 -19 -42 -19 -78 0 -150 13 -155 27 -10 25 27 52 76 56 61
4 83 -1 104 -25z m1447 -48 c0 -6 -24 -10 -60 -8 -33 1 -60 6 -60 10 0 4 27 8
60 8 34 0 60 -4 60 -10z m-238 -153 c-56 -57 -61 -67 -34 -67 10 0 22 -4 28
-10 5 -5 60 -11 122 -12 106 -3 112 -4 112 -24 0 -34 -21 -84 -39 -93 -20 -11
-467 -18 -501 -7 -14 4 -34 11 -45 16 -11 5 -36 16 -56 23 -28 12 -37 22 -43
47 -9 49 -7 138 4 145 5 3 38 8 72 10 35 3 70 5 78 6 35 5 47 -2 46 -23 -1
-18 7 -25 37 -32 36 -9 40 -8 80 32 42 42 42 42 117 42 l74 0 -52 -53z m216
41 c-7 -19 -63 -21 -95 -4 -28 15 -27 15 35 16 47 0 63 -3 60 -12z m-1239 -17
c18 -10 21 -21 21 -79 0 -93 -19 -115 -125 -144 -68 -18 -107 -21 -271 -22
-232 -1 -270 8 -280 63 -11 67 -12 66 31 69 22 1 49 7 60 12 11 5 36 11 55 14
19 2 55 10 80 16 25 6 61 14 80 17 19 3 58 20 85 38 49 32 52 32 147 30 53 -2
106 -8 117 -14z m-669 -52 c0 -5 -4 -9 -10 -9 -5 0 -10 7 -10 16 0 8 5 12 10
9 6 -3 10 -10 10 -16z"/>
<path d="M2470 541 c0 -18 29 -31 70 -31 41 0 70 13 70 31 0 3 -31 6 -70 6
-38 0 -70 -3 -70 -6z"/>
</g>
</svg>
